<svg xmlns="http://www.w3.org/2000/svg" width="218" height="218" viewBox="0 0 218 218"><g fill="#999"><path d="M28.454 36.366c.343-.38.688-.757 1.038-1.132-.35.375-.694.754-1.038 1.132zM32.55 32.05l-.004.002M24.13 41.428c.803-.998 1.628-1.986 2.47-2.963-.845.978-1.666 1.967-2.47 2.963zM185.9 32.05c.82.837 1.623 1.68 2.413 2.53-.79-.85-1.59-1.694-2.413-2.53zM173.05 65.4c-8.833 13-13.25 27.867-13.25 44.6 0 17.934 5.067 33.833 15.2 47.7l18.978 18.928c15.677-19.386 23.522-41.942 23.522-67.678 0-27.364-8.87-51.193-26.594-71.49 1.585 1.817 3.1 3.664 4.544 5.54l-22.4 22.4zM43.85 157.85c10.066-13.967 15.1-29.916 15.1-47.85 0-17.5-4.867-33.018-14.6-46.55l-21.05-21C9.84 59.5 2.445 79.01 1.15 101c-.135.233-.2.467-.2.7-.1 2.3-.15 4.716-.15 7.25 0 2.4.05 4.8.15 7.2.232 4.332.716 8.6 1.45 12.8 3.092 17.84 10.536 33.87 22.303 48.096L43.85 157.85zM61.9 44.35C75.7 54.583 91.567 59.7 109.5 59.7c18.467 0 34.666-5.367 48.6-16.1l19.29-19.24C157.99 8.457 135.28.5 109.25.5 83.506.5 60.942 8.34 41.552 24L61.9 44.35zM188.646 34.942c.75.813 1.487 1.63 2.208 2.457-.722-.826-1.458-1.645-2.208-2.458zM32.553 32.045c2.9-2.833 5.863-5.484 8.89-7.958-3.04 2.462-6.005 5.11-8.89 7.958zM42.606 194.64c-.098-.075-.194-.153-.292-.23l.292.23zM185.9 185.65c.688-.695 1.362-1.396 2.027-2.1-.664.704-1.34 1.404-2.027 2.1zM158.1 177.35c-13.934-10.732-30.133-16.1-48.6-16.1-17.933 0-33.833 5.1-47.7 15.3l-18.532 18.583c.92.7 1.84 1.4 2.78 2.067 18.168 13.467 39.234 20.2 63.2 20.2 23.936 0 45.034-6.733 63.3-20.2 1.045-.747 2.072-1.52 3.087-2.315L158.1 177.35zM189.196 182.18c.192-.21.39-.418.58-.63-.19.212-.387.42-.58.63zM35.933 188.95c-.085-.08-.173-.158-.26-.24.087.082.174.16.26.24zM28.052 180.91c-.97-1.072-1.91-2.154-2.83-3.246.918 1.093 1.86 2.175 2.83 3.246zM39.225 191.886l-.293-.25.293.25zM30.22 183.256c-.506-.534-1.007-1.07-1.5-1.608.494.54.993 1.075 1.5 1.608zM32.55 185.65l-.173-.177c.06.06.113.12.173.177.023.025.05.048.074.073l-.074-.073z"/></g><path fill="#999" d="M79.1 110.95c-.033-.667-.05-1.333-.05-2 0-.7.017-1.366.05-2 0-.067.017-.134.05-.2.434-7.367 3.333-13.733 8.7-19.1 5.9-5.833 12.983-8.75 21.25-8.75 8.3 0 15.384 2.917 21.25 8.75 5.834 5.934 8.75 13.033 8.75 21.3 0 8.267-2.916 15.35-8.75 21.25-.2.233-.416.45-.648.65-.967.933-1.983 1.782-3.05 2.55-5.066 3.732-10.917 5.6-17.55 5.6-6.634 0-12.467-1.866-17.5-5.6-1.334-.935-2.584-2-3.75-3.2-4.534-4.5-7.318-9.733-8.35-15.7-.202-1.166-.335-2.35-.402-3.55zm47 16.3l3.602 3.6-3.602-3.6z"/></svg>